<svg width="160" height="160" viewBox="0 0 160 160" fill="none" xmlns="http://www.w3.org/2000/svg">
<g id="zondicons:block" clip-path="url(#clip0_35_804)">
<path id="Vector" d="M0 80C0 58.7827 8.42855 38.4344 23.4315 23.4315C38.4344 8.42855 58.7827 0 80 0C101.217 0 121.566 8.42855 136.569 23.4315C151.571 38.4344 160 58.7827 160 80C160 101.217 151.571 121.566 136.569 136.569C121.566 151.571 101.217 160 80 160C58.7827 160 38.4344 151.571 23.4315 136.569C8.42855 121.566 0 101.217 0 80ZM130.56 40.8L40.72 130.48C53.0297 140.044 68.4069 144.787 83.9653 143.818C99.5238 142.849 114.194 136.234 125.221 125.217C136.249 114.199 142.876 99.5348 143.859 83.9772C144.842 68.4197 140.113 53.0382 130.56 40.72V40.8ZM119.28 29.44C106.969 19.8128 91.5614 15.0228 75.9622 15.9734C60.363 16.9239 45.6508 23.5493 34.6 34.6C23.5493 45.6508 16.9239 60.363 15.9734 75.9622C15.0228 91.5614 19.8128 106.969 29.44 119.28L119.28 29.44Z" fill="black"/>
</g>
<defs>
<clipPath id="clip0_35_804">
<rect width="160" height="160" fill="white"/>
</clipPath>
</defs>
</svg>
