<svg width="64" height="72" viewBox="0 0 64 72" fill="none" xmlns="http://www.w3.org/2000/svg">
<path d="M44 8H20C15.5817 8 12 11.5817 12 16V36C12 40.4183 15.5817 44 20 44H44C48.4183 44 52 40.4183 52 36V16C52 11.5817 48.4183 8 44 8Z" stroke="#787878" stroke-width="2" stroke-linecap="round" stroke-linejoin="round"/>
<path d="M24 4V12" stroke="#787878" stroke-width="2" stroke-linecap="round" stroke-linejoin="round"/>
<path d="M40 4V12" stroke="#787878" stroke-width="2" stroke-linecap="round" stroke-linejoin="round"/>
<path d="M12 20H52" stroke="#787878" stroke-width="2" stroke-linecap="round" stroke-linejoin="round"/>
<path d="M1.56 51.072H3.192V66H1.56V51.072ZM8.91381 54.36H9.87381C11.1378 54.36 11.7698 54.992 11.7698 56.256V66H10.1138V56.52C10.1138 56.216 10.0658 56.016 9.96981 55.92C9.88981 55.824 9.68981 55.776 9.36981 55.776H8.40981C8.12181 55.776 7.91381 55.84 7.78581 55.968C7.65781 56.096 7.59381 56.32 7.59381 56.64V66H5.93781V54.36H7.59381V55.152C7.76981 54.624 8.20981 54.36 8.91381 54.36ZM18.086 54.36H19.742V67.488C19.742 68.752 19.11 69.384 17.846 69.384H14.27V67.968H17.342C17.646 67.968 17.846 67.92 17.942 67.824C18.038 67.728 18.086 67.528 18.086 67.224V65.208C17.91 65.736 17.47 66 16.766 66H15.806C14.542 66 13.91 65.368 13.91 64.104V56.256C13.91 54.992 14.542 54.36 15.806 54.36H16.766C17.47 54.36 17.91 54.624 18.086 55.152V54.36ZM16.31 64.584H17.27C17.558 64.584 17.766 64.52 17.894 64.392C18.022 64.264 18.086 64.04 18.086 63.72V56.64C18.086 56.32 18.022 56.096 17.894 55.968C17.766 55.84 17.558 55.776 17.27 55.776H16.31C15.99 55.776 15.782 55.824 15.686 55.92C15.606 56.016 15.566 56.216 15.566 56.52V63.84C15.566 64.16 15.606 64.368 15.686 64.464C15.782 64.544 15.99 64.584 16.31 64.584ZM25.389 54.36H25.893V55.8H25.173C24.165 55.8 23.661 56.4 23.661 57.6V66H22.005V54.36H23.661V55.704C23.789 55.336 23.997 55.024 24.285 54.768C24.589 54.496 24.957 54.36 25.389 54.36ZM29.0869 54.36H31.2949C32.5589 54.36 33.1909 54.992 33.1909 56.256V60.744H28.8469V63.84C28.8469 64.16 28.8949 64.368 28.9909 64.464C29.0869 64.544 29.2869 64.584 29.5909 64.584H30.7189C31.0389 64.584 31.2389 64.544 31.3189 64.464C31.4149 64.368 31.4629 64.16 31.4629 63.84V62.784H33.1189V64.104C33.1189 65.368 32.4869 66 31.2229 66H29.0869C27.8229 66 27.1909 65.368 27.1909 64.104V56.256C27.1909 54.992 27.8229 54.36 29.0869 54.36ZM28.8469 59.328H31.5349V56.52C31.5349 56.216 31.4869 56.016 31.3909 55.92C31.2949 55.824 31.0949 55.776 30.7909 55.776H29.5909C29.2869 55.776 29.0869 55.824 28.9909 55.92C28.8949 56.016 28.8469 56.216 28.8469 56.52V59.328ZM38.7888 63.864V61.656C38.7888 61.352 38.7408 61.152 38.6448 61.056C38.5488 60.96 38.3488 60.912 38.0448 60.912H36.8688C35.6048 60.912 34.9728 60.28 34.9728 59.016V56.256C34.9728 54.992 35.6048 54.36 36.8688 54.36H38.5008C39.7648 54.36 40.3968 54.992 40.3968 56.256V57.432H38.7648V56.496C38.7648 56.176 38.7168 55.976 38.6208 55.896C38.5408 55.8 38.3408 55.752 38.0208 55.752H37.3488C37.0288 55.752 36.8208 55.8 36.7248 55.896C36.6448 55.976 36.6048 56.176 36.6048 56.496V58.776C36.6048 59.08 36.6448 59.28 36.7248 59.376C36.8208 59.472 37.0288 59.52 37.3488 59.52H38.5248C39.7888 59.52 40.4208 60.152 40.4208 61.416V64.104C40.4208 65.368 39.7888 66 38.5248 66H36.9168C35.6528 66 35.0208 65.368 35.0208 64.104V62.928H36.6528V63.864C36.6528 64.168 36.6928 64.368 36.7728 64.464C36.8688 64.56 37.0768 64.608 37.3968 64.608H38.0448C38.3488 64.608 38.5488 64.56 38.6448 64.464C38.7408 64.368 38.7888 64.168 38.7888 63.864ZM46.0138 63.864V61.656C46.0138 61.352 45.9658 61.152 45.8698 61.056C45.7738 60.96 45.5738 60.912 45.2698 60.912H44.0938C42.8298 60.912 42.1978 60.28 42.1978 59.016V56.256C42.1978 54.992 42.8298 54.36 44.0938 54.36H45.7258C46.9898 54.36 47.6218 54.992 47.6218 56.256V57.432H45.9898V56.496C45.9898 56.176 45.9418 55.976 45.8458 55.896C45.7658 55.8 45.5658 55.752 45.2458 55.752H44.5738C44.2538 55.752 44.0458 55.8 43.9498 55.896C43.8698 55.976 43.8298 56.176 43.8298 56.496V58.776C43.8298 59.08 43.8698 59.28 43.9498 59.376C44.0458 59.472 44.2538 59.52 44.5738 59.52H45.7498C47.0138 59.52 47.6458 60.152 47.6458 61.416V64.104C47.6458 65.368 47.0138 66 45.7498 66H44.1418C42.8778 66 42.2458 65.368 42.2458 64.104V62.928H43.8778V63.864C43.8778 64.168 43.9178 64.368 43.9978 64.464C44.0938 64.56 44.3018 64.608 44.6218 64.608H45.2698C45.5738 64.608 45.7738 64.56 45.8698 64.464C45.9658 64.368 46.0138 64.168 46.0138 63.864ZM51.4388 54.36H53.8868C55.1508 54.36 55.7828 54.992 55.7828 56.256V64.104C55.7828 65.368 55.1508 66 53.8868 66H51.4388C50.1748 66 49.5428 65.368 49.5428 64.104V56.256C49.5428 54.992 50.1748 54.36 51.4388 54.36ZM54.1508 63.84V56.52C54.1508 56.216 54.1028 56.016 54.0068 55.92C53.9108 55.824 53.7108 55.776 53.4068 55.776H51.9188C51.6148 55.776 51.4148 55.824 51.3188 55.92C51.2228 56.016 51.1748 56.216 51.1748 56.52V63.84C51.1748 64.16 51.2228 64.368 51.3188 64.464C51.4148 64.544 51.6148 64.584 51.9188 64.584H53.4068C53.7108 64.584 53.9108 64.544 54.0068 64.464C54.1028 64.368 54.1508 64.16 54.1508 63.84ZM61.4951 63.864V61.656C61.4951 61.352 61.4471 61.152 61.3511 61.056C61.2551 60.96 61.0551 60.912 60.7511 60.912H59.5751C58.3111 60.912 57.6791 60.28 57.6791 59.016V56.256C57.6791 54.992 58.3111 54.36 59.5751 54.36H61.2071C62.4711 54.36 63.1031 54.992 63.1031 56.256V57.432H61.4711V56.496C61.4711 56.176 61.4231 55.976 61.3271 55.896C61.2471 55.8 61.0471 55.752 60.7271 55.752H60.0551C59.7351 55.752 59.5271 55.8 59.4311 55.896C59.3511 55.976 59.3111 56.176 59.3111 56.496V58.776C59.3111 59.08 59.3511 59.28 59.4311 59.376C59.5271 59.472 59.7351 59.52 60.0551 59.52H61.2311C62.4951 59.52 63.1271 60.152 63.1271 61.416V64.104C63.1271 65.368 62.4951 66 61.2311 66H59.6231C58.3591 66 57.7271 65.368 57.7271 64.104V62.928H59.3591V63.864C59.3591 64.168 59.3991 64.368 59.4791 64.464C59.5751 64.56 59.7831 64.608 60.1031 64.608H60.7511C61.0551 64.608 61.2551 64.56 61.3511 64.464C61.4471 64.368 61.4951 64.168 61.4951 63.864Z" fill="#787878"/>
</svg>
