<svg width="39" height="48" viewBox="0 0 39 48" fill="none" xmlns="http://www.w3.org/2000/svg">
<path d="M25.5 4H13.5C11.2909 4 9.5 5.79086 9.5 8V18C9.5 20.2091 11.2909 22 13.5 22H25.5C27.7091 22 29.5 20.2091 29.5 18V8C29.5 5.79086 27.7091 4 25.5 4Z" stroke="#787878" stroke-width="2" stroke-linecap="round" stroke-linejoin="round"/>
<path d="M15.5 2V6" stroke="#787878" stroke-width="2" stroke-linecap="round" stroke-linejoin="round"/>
<path d="M23.5 2V6" stroke="#787878" stroke-width="2" stroke-linecap="round" stroke-linejoin="round"/>
<path d="M9.5 10H29.5" stroke="#787878" stroke-width="2" stroke-linecap="round" stroke-linejoin="round"/>
<path d="M2.232 38.938H5.31V40H0.99V28.804H5.184V29.866H2.232V33.646H4.644V34.708H2.232V38.938ZM7.10973 31.27L8.27973 39.136L9.46773 31.27H10.7097L9.26973 40H7.30773L5.86773 31.27H7.10973ZM13.1371 31.27H14.7931C15.7411 31.27 16.2151 31.744 16.2151 32.692V36.058H12.9571V38.38C12.9571 38.62 12.9931 38.776 13.0651 38.848C13.1371 38.908 13.2871 38.938 13.5151 38.938H14.3611C14.6011 38.938 14.7511 38.908 14.8111 38.848C14.8831 38.776 14.9191 38.62 14.9191 38.38V37.588H16.1611V38.578C16.1611 39.526 15.6871 40 14.7391 40H13.1371C12.1891 40 11.7151 39.526 11.7151 38.578V32.692C11.7151 31.744 12.1891 31.27 13.1371 31.27ZM12.9571 34.996H14.9731V32.89C14.9731 32.662 14.9371 32.512 14.8651 32.44C14.7931 32.368 14.6431 32.332 14.4151 32.332H13.5151C13.2871 32.332 13.1371 32.368 13.0651 32.44C12.9931 32.512 12.9571 32.662 12.9571 32.89V34.996ZM19.9885 31.27H20.7085C21.6565 31.27 22.1305 31.744 22.1305 32.692V40H20.8885V32.89C20.8885 32.662 20.8525 32.512 20.7805 32.44C20.7205 32.368 20.5705 32.332 20.3305 32.332H19.6105C19.3945 32.332 19.2385 32.38 19.1425 32.476C19.0465 32.572 18.9985 32.74 18.9985 32.98V40H17.7565V31.27H18.9985V31.864C19.1305 31.468 19.4605 31.27 19.9885 31.27ZM26.4066 32.332H25.1646V38.29C25.1646 38.518 25.2006 38.668 25.2726 38.74C25.3446 38.812 25.4946 38.848 25.7226 38.848H26.4066V40H25.3446C24.3966 40 23.9226 39.526 23.9226 38.578V32.332H23.1306V31.27H23.9226V29.848H25.1646V31.27H26.4066V32.332ZM28.8334 31.27H30.6694C31.6174 31.27 32.0914 31.744 32.0914 32.692V38.578C32.0914 39.526 31.6174 40 30.6694 40H28.8334C27.8854 40 27.4114 39.526 27.4114 38.578V32.692C27.4114 31.744 27.8854 31.27 28.8334 31.27ZM30.8674 38.38V32.89C30.8674 32.662 30.8314 32.512 30.7594 32.44C30.6874 32.368 30.5374 32.332 30.3094 32.332H29.1934C28.9654 32.332 28.8154 32.368 28.7434 32.44C28.6714 32.512 28.6354 32.662 28.6354 32.89V38.38C28.6354 38.62 28.6714 38.776 28.7434 38.848C28.8154 38.908 28.9654 38.938 29.1934 38.938H30.3094C30.5374 38.938 30.6874 38.908 30.7594 38.848C30.8314 38.776 30.8674 38.62 30.8674 38.38ZM36.4006 38.398V36.742C36.4006 36.514 36.3646 36.364 36.2926 36.292C36.2206 36.22 36.0706 36.184 35.8426 36.184H34.9606C34.0126 36.184 33.5386 35.71 33.5386 34.762V32.692C33.5386 31.744 34.0126 31.27 34.9606 31.27H36.1846C37.1326 31.27 37.6066 31.744 37.6066 32.692V33.574H36.3826V32.872C36.3826 32.632 36.3466 32.482 36.2746 32.422C36.2146 32.35 36.0646 32.314 35.8246 32.314H35.3206C35.0806 32.314 34.9246 32.35 34.8526 32.422C34.7926 32.482 34.7626 32.632 34.7626 32.872V34.582C34.7626 34.81 34.7926 34.96 34.8526 35.032C34.9246 35.104 35.0806 35.14 35.3206 35.14H36.2026C37.1506 35.14 37.6246 35.614 37.6246 36.562V38.578C37.6246 39.526 37.1506 40 36.2026 40H34.9966C34.0486 40 33.5746 39.526 33.5746 38.578V37.696H34.7986V38.398C34.7986 38.626 34.8286 38.776 34.8886 38.848C34.9606 38.92 35.1166 38.956 35.3566 38.956H35.8426C36.0706 38.956 36.2206 38.92 36.2926 38.848C36.3646 38.776 36.4006 38.626 36.4006 38.398Z" fill="#787878"/>
</svg>
