<svg width="48" height="80" viewBox="0 0 48 80" fill="none" xmlns="http://www.w3.org/2000/svg">
<path d="M44.3673 23.6718L26.2548 5.56872L25.0407 4.35465C24.7641 4.07986 24.39 3.92563 24.0001 3.92563C23.6102 3.92563 23.2361 4.07986 22.9595 4.35465L3.63291 23.6718C3.34946 23.9542 3.12545 24.2904 2.97409 24.6608C2.82273 25.0311 2.7471 25.428 2.75166 25.8281C2.77041 27.4781 4.14385 28.7953 5.79385 28.7953H7.78603V44.0625H40.2142V28.7953H42.2485C43.0501 28.7953 43.8048 28.4812 44.372 27.914C44.6513 27.6356 44.8725 27.3046 45.023 26.9401C45.1735 26.5756 45.2501 26.1849 45.2485 25.7906C45.2485 24.9937 44.9345 24.239 44.3673 23.6718V23.6718ZM26.6251 40.6875H21.3751V31.125H26.6251V40.6875ZM36.8392 25.4203V40.6875H29.6251V30C29.6251 28.964 28.786 28.125 27.7501 28.125H20.2501C19.2142 28.125 18.3751 28.964 18.3751 30V40.6875H11.161V25.4203H6.66103L24.0048 8.09059L25.0876 9.1734L41.3438 25.4203H36.8392Z" fill="#4B02B3"/>
<path d="M11.192 59.072H12.848V74H11.192V67.256H7.976V74H6.32V59.072H7.976V65.84H11.192V59.072ZM17.1201 62.36H19.5681C20.8321 62.36 21.4641 62.992 21.4641 64.256V72.104C21.4641 73.368 20.8321 74 19.5681 74H17.1201C15.8561 74 15.2241 73.368 15.2241 72.104V64.256C15.2241 62.992 15.8561 62.36 17.1201 62.36ZM19.8321 71.84V64.52C19.8321 64.216 19.7841 64.016 19.6881 63.92C19.5921 63.824 19.3921 63.776 19.0881 63.776H17.6001C17.2961 63.776 17.0961 63.824 17.0001 63.92C16.9041 64.016 16.8561 64.216 16.8561 64.52V71.84C16.8561 72.16 16.9041 72.368 17.0001 72.464C17.0961 72.544 17.2961 72.584 17.6001 72.584H19.0881C19.3921 72.584 19.5921 72.544 19.6881 72.464C19.7841 72.368 19.8321 72.16 19.8321 71.84ZM30.7523 62.36H31.7123C32.9763 62.36 33.6083 62.992 33.6083 64.256V74H31.9523V64.52C31.9523 64.216 31.9043 64.016 31.8083 63.92C31.7283 63.824 31.5283 63.776 31.2083 63.776H30.2483C29.9603 63.776 29.7523 63.84 29.6243 63.968C29.4963 64.096 29.4323 64.32 29.4323 64.64V74H27.7763V64.52C27.7763 64.216 27.7283 64.016 27.6323 63.92C27.5523 63.824 27.3523 63.776 27.0323 63.776H26.0723C25.7843 63.776 25.5763 63.84 25.4483 63.968C25.3203 64.096 25.2563 64.32 25.2563 64.64V74H23.6003V62.36H25.2563V63.152C25.4323 62.624 25.8723 62.36 26.5763 62.36H27.5363C28.4483 62.36 29.0323 62.68 29.2883 63.32C29.4483 62.68 29.9363 62.36 30.7523 62.36ZM37.6432 62.36H39.8512C41.1152 62.36 41.7472 62.992 41.7472 64.256V68.744H37.4032V71.84C37.4032 72.16 37.4512 72.368 37.5472 72.464C37.6432 72.544 37.8432 72.584 38.1472 72.584H39.2752C39.5952 72.584 39.7952 72.544 39.8752 72.464C39.9712 72.368 40.0192 72.16 40.0192 71.84V70.784H41.6752V72.104C41.6752 73.368 41.0432 74 39.7792 74H37.6432C36.3792 74 35.7472 73.368 35.7472 72.104V64.256C35.7472 62.992 36.3792 62.36 37.6432 62.36ZM37.4032 67.328H40.0912V64.52C40.0912 64.216 40.0432 64.016 39.9472 63.92C39.8512 63.824 39.6512 63.776 39.3472 63.776H38.1472C37.8432 63.776 37.6432 63.824 37.5472 63.92C37.4512 64.016 37.4032 64.216 37.4032 64.52V67.328Z" fill="#4B02B3"/>
</svg>
