<svg width="48" height="84" viewBox="0 0 48 84" fill="none" xmlns="http://www.w3.org/2000/svg">
<path d="M46.0237 81.3044C47.1954 80.1323 47.8536 78.5429 47.8536 76.8856C47.8536 75.2283 47.1954 73.6389 46.0237 72.4669L15.0862 41.5294L46.0237 10.5919C47.1622 9.41309 47.7921 7.83432 47.7779 6.19559C47.7636 4.55686 47.1063 2.98928 45.9475 1.83048C44.7887 0.671683 43.2212 0.0143845 41.5824 0.000144338C39.9437 -0.0140958 38.3649 0.615869 37.1862 1.75436L1.82991 37.1106C0.658221 38.2827 0 39.8721 0 41.5294C0 43.1866 0.658221 44.7761 1.82991 45.9481L37.1862 81.3044C38.3582 82.4761 39.9476 83.1343 41.6049 83.1343C43.2622 83.1343 44.8516 82.4761 46.0237 81.3044Z" fill="#E6EAED"/>
</svg>
