<svg width="48" height="72" viewBox="0 0 48 72" fill="none" xmlns="http://www.w3.org/2000/svg">
<path d="M24 11.8C24.5516 11.8 25.0977 11.9086 25.6073 12.1197C26.1168 12.3308 26.5798 12.6401 26.9698 13.0302C27.3599 13.4202 27.6692 13.8832 27.8803 14.3927C28.0914 14.9023 28.2 15.4484 28.2 16C28.2 16.5516 28.0914 17.0977 27.8803 17.6073C27.6692 18.1168 27.3599 18.5798 26.9698 18.9698C26.5798 19.3599 26.1168 19.6692 25.6073 19.8803C25.0977 20.0914 24.5516 20.2 24 20.2C22.8861 20.2 21.8178 19.7575 21.0302 18.9698C20.2425 18.1822 19.8 17.1139 19.8 16C19.8 14.8861 20.2425 13.8178 21.0302 13.0302C21.8178 12.2425 22.8861 11.8 24 11.8V11.8ZM24 29.8C29.94 29.8 36.2 32.72 36.2 34V36.2H11.8V34C11.8 32.72 18.06 29.8 24 29.8V29.8ZM24 8C19.58 8 16 11.58 16 16C16 20.42 19.58 24 24 24C28.42 24 32 20.42 32 16C32 11.58 28.42 8 24 8ZM24 26C18.66 26 8 28.68 8 34V40H40V34C40 28.68 29.34 26 24 26Z" fill="#4B02B3"/>
<path d="M7.82 51.072H12.164C13.428 51.072 14.06 51.704 14.06 52.968V58.104C14.06 59.368 13.428 60 12.164 60H9.452V66H7.82V51.072ZM12.428 57.84V53.232C12.428 52.912 12.38 52.712 12.284 52.632C12.204 52.536 12.004 52.488 11.684 52.488H9.452V58.584H11.684C12.004 58.584 12.204 58.544 12.284 58.464C12.38 58.368 12.428 58.16 12.428 57.84ZM17.8494 54.36H20.0574C21.3214 54.36 21.9534 54.992 21.9534 56.256V60.744H17.6094V63.84C17.6094 64.16 17.6574 64.368 17.7534 64.464C17.8494 64.544 18.0494 64.584 18.3534 64.584H19.4814C19.8014 64.584 20.0014 64.544 20.0814 64.464C20.1774 64.368 20.2254 64.16 20.2254 63.84V62.784H21.8814V64.104C21.8814 65.368 21.2494 66 19.9854 66H17.8494C16.5854 66 15.9534 65.368 15.9534 64.104V56.256C15.9534 54.992 16.5854 54.36 17.8494 54.36ZM17.6094 59.328H20.2974V56.52C20.2974 56.216 20.2494 56.016 20.1534 55.92C20.0574 55.824 19.8574 55.776 19.5534 55.776H18.3534C18.0494 55.776 17.8494 55.824 17.7534 55.92C17.6574 56.016 17.6094 56.216 17.6094 56.52V59.328ZM27.3593 54.36H27.8633V55.8H27.1433C26.1353 55.8 25.6313 56.4 25.6313 57.6V66H23.9753V54.36H25.6313V55.704C25.7593 55.336 25.9673 55.024 26.2553 54.768C26.5593 54.496 26.9273 54.36 27.3593 54.36ZM32.6892 51.48H31.7532C31.4492 51.48 31.2492 51.528 31.1532 51.624C31.0572 51.704 31.0092 51.904 31.0092 52.224V54.36H32.6892V55.776H31.0092V66H29.3532V55.776H28.2012V54.36H29.3532V51.84C29.3532 50.576 29.9852 49.944 31.2492 49.944H32.6892V51.48ZM33.9476 51.864V49.92H35.6996V51.864H33.9476ZM35.6516 66H33.9956V54.36H35.6516V66ZM39.5719 66H37.9159V49.944H39.5719V66Z" fill="#4B02B3"/>
</svg>
