<svg width="24" height="24" viewBox="0 0 24 24" fill="none" xmlns="http://www.w3.org/2000/svg">
<g clip-path="url(#clip0_339_670)">
<path fill-rule="evenodd" clip-rule="evenodd" d="M0.0351562 0.0175781H8.75195V8.69922H0.0351562V0.0175781ZM21.7773 21.7949H24V23.9824H21.7773V21.7949ZM17.5059 21.791H19.7285V23.875H17.5059H17.5039H15.2832V19.6133H17.4355V17.4531H19.625V13.1465H21.8477V15.2637H23.9648V17.4512H21.8477V19.6387H19.6582H19.625H17.5059V21.791ZM10.9062 17.418H13.0586V15.2305H10.9766V13.043H13.0586V10.8555H10.9414V13.043H8.7168V10.8555H10.9043V4.35937H13.127V10.8535H15.2793V13.041H17.3965V10.8535H19.6191V13.041H17.5059V15.2285H15.2832V19.5352H13.1289V23.8769H10.9062V17.418ZM21.7402 10.8535H23.9629V13.041H21.7402V10.8535ZM4.37695 10.8535H6.59961V13.041H4.37695V10.8535ZM0.0351562 10.8535H2.25781V13.041H0.0351562V10.8535ZM10.9062 0.0175781H13.1289V2.20508H10.9062V0.0175781ZM0 15.2637H8.7168V23.9453H0V15.2637ZM2.11719 17.373H6.59961V21.8379H2.11719V17.373ZM15.2461 0.0175781H23.9629V8.69922H15.2461V0.0175781ZM17.3652 2.12695H21.8477V6.5918H17.3652V2.12695ZM2.15234 2.12695H6.63476V6.5918H2.15234V2.12695Z" fill="black"/>
</g>
<defs>
<clipPath id="clip0_339_670">
<rect width="24" height="24" fill="white"/>
</clipPath>
</defs>
</svg>
