<svg width="48" height="84" viewBox="0 0 48 84" fill="none" xmlns="http://www.w3.org/2000/svg">
<path d="M1.82985 1.82992C0.658158 3.00196 -6.44922e-05 4.59139 -6.44922e-05 6.24867C-6.44922e-05 7.90594 0.658158 9.49537 1.82985 10.6674L32.7674 41.6049L1.82985 72.5424C0.691364 73.7212 0.0613992 75.3 0.0756394 76.9387C0.0898795 78.5774 0.747184 80.145 1.90598 81.3038C3.06479 82.4626 4.63237 83.1199 6.2711 83.1341C7.90983 83.1484 9.48859 82.5184 10.6673 81.3799L46.0236 46.0237C47.1953 44.8516 47.8535 43.2622 47.8535 41.6049C47.8535 39.9476 47.1953 38.3582 46.0236 37.1862L10.6673 1.82992C9.4953 0.658221 7.90588 0 6.2486 0C4.59132 0 3.0019 0.658221 1.82985 1.82992Z" fill="#6B02FF"/>
</svg>
