<svg width="48" height="80" viewBox="0 0 48 80" fill="none" xmlns="http://www.w3.org/2000/svg">
<path fill-rule="evenodd" clip-rule="evenodd" d="M32.65 29.798L43.41 40.558C43.7882 40.9365 44.0006 41.4497 44.0004 41.9847C44.0002 42.5198 43.7875 43.0328 43.409 43.411C43.0306 43.7892 42.5174 44.0016 41.9823 44.0014C41.4473 44.0012 40.9342 43.7885 40.556 43.41L29.796 32.65C26.5794 35.1414 22.5346 36.3138 18.4843 35.9287C14.434 35.5437 10.6825 33.6301 7.99299 30.5772C5.30349 27.5244 3.87801 23.5616 4.00653 19.4951C4.13505 15.4286 5.80793 11.5637 8.68483 8.68682C11.5617 5.80991 15.4266 4.13703 19.4931 4.00851C23.5596 3.87999 27.5224 5.30547 30.5752 7.99497C33.6281 10.6845 35.5417 14.436 35.9267 18.4863C36.3118 22.5366 35.1394 26.5814 32.648 29.798H32.65ZM20 32C23.1826 32 26.2349 30.7357 28.4853 28.4853C30.7357 26.2349 32 23.1826 32 20C32 16.8174 30.7357 13.7652 28.4853 11.5147C26.2349 9.26429 23.1826 8.00001 20 8.00001C16.8174 8.00001 13.7652 9.26429 11.5147 11.5147C9.26431 13.7652 8.00002 16.8174 8.00002 20C8.00002 23.1826 9.26431 26.2349 11.5147 28.4853C13.7652 30.7357 16.8174 32 20 32V32Z" fill="#787878"/>
<path d="M7.288 64.928V61.232C7.288 60.912 7.24 60.712 7.144 60.632C7.048 60.536 6.848 60.488 6.544 60.488H3.976V65.672H6.544C6.848 65.672 7.048 65.632 7.144 65.552C7.24 65.456 7.288 65.248 7.288 64.928ZM7.288 71.84V67.832C7.288 67.528 7.24 67.328 7.144 67.232C7.048 67.136 6.848 67.088 6.544 67.088H3.976V72.584H6.544C6.848 72.584 7.048 72.544 7.144 72.464C7.24 72.368 7.288 72.16 7.288 71.84ZM2.32 59.072H7.048C8.312 59.072 8.944 59.704 8.944 60.968V65.264C8.944 66 8.648 66.392 8.056 66.44C8.648 66.536 8.944 66.904 8.944 67.544V72.104C8.944 73.368 8.312 74 7.048 74H2.32V59.072ZM15.4966 62.36H17.1526V74H15.4966V73.208C15.3206 73.736 14.8806 74 14.1766 74H13.2166C11.9526 74 11.3206 73.368 11.3206 72.104V62.36H12.9766V71.84C12.9766 72.16 13.0246 72.368 13.1206 72.464C13.2166 72.544 13.4166 72.584 13.7206 72.584H14.6806C14.9686 72.584 15.1766 72.52 15.3046 72.392C15.4326 72.264 15.4966 72.04 15.4966 71.72V62.36ZM22.9888 71.864V69.656C22.9888 69.352 22.9408 69.152 22.8448 69.056C22.7488 68.96 22.5488 68.912 22.2448 68.912H21.0688C19.8048 68.912 19.1728 68.28 19.1728 67.016V64.256C19.1728 62.992 19.8048 62.36 21.0688 62.36H22.7008C23.9648 62.36 24.5968 62.992 24.5968 64.256V65.432H22.9648V64.496C22.9648 64.176 22.9168 63.976 22.8208 63.896C22.7408 63.8 22.5408 63.752 22.2208 63.752H21.5488C21.2288 63.752 21.0208 63.8 20.9248 63.896C20.8448 63.976 20.8048 64.176 20.8048 64.496V66.776C20.8048 67.08 20.8448 67.28 20.9248 67.376C21.0208 67.472 21.2288 67.52 21.5488 67.52H22.7248C23.9888 67.52 24.6208 68.152 24.6208 69.416V72.104C24.6208 73.368 23.9888 74 22.7248 74H21.1168C19.8528 74 19.2208 73.368 19.2208 72.104V70.928H20.8528V71.864C20.8528 72.168 20.8928 72.368 20.9728 72.464C21.0688 72.56 21.2768 72.608 21.5968 72.608H22.2448C22.5488 72.608 22.7488 72.56 22.8448 72.464C22.9408 72.368 22.9888 72.168 22.9888 71.864ZM32.5178 65.816H30.8618V64.52C30.8618 64.216 30.8138 64.016 30.7178 63.92C30.6378 63.824 30.4378 63.776 30.1178 63.776H28.9178C28.5978 63.776 28.3898 63.824 28.2938 63.92C28.2138 64.016 28.1738 64.216 28.1738 64.52V71.84C28.1738 72.16 28.2138 72.368 28.2938 72.464C28.3898 72.544 28.5978 72.584 28.9178 72.584H30.1178C30.4378 72.584 30.6378 72.544 30.7178 72.464C30.8138 72.368 30.8618 72.16 30.8618 71.84V70.544H32.5178V72.104C32.5178 73.368 31.8858 74 30.6218 74H28.4138C27.1498 74 26.5178 73.368 26.5178 72.104V64.256C26.5178 62.992 27.1498 62.36 28.4138 62.36H30.6218C31.8858 62.36 32.5178 62.992 32.5178 64.256V65.816ZM38.5985 62.36H40.2545V74H38.5985V73.208C38.4225 73.736 37.9825 74 37.2785 74H36.3185C35.0545 74 34.4225 73.368 34.4225 72.104V64.256C34.4225 62.992 35.0545 62.36 36.3185 62.36H37.2785C37.9825 62.36 38.4225 62.624 38.5985 63.152V62.36ZM36.8225 72.584H37.7825C38.0705 72.584 38.2785 72.52 38.4065 72.392C38.5345 72.264 38.5985 72.04 38.5985 71.72V64.64C38.5985 64.32 38.5345 64.096 38.4065 63.968C38.2785 63.84 38.0705 63.776 37.7825 63.776H36.8225C36.5025 63.776 36.2945 63.824 36.1985 63.92C36.1185 64.016 36.0785 64.216 36.0785 64.52V71.84C36.0785 72.16 36.1185 72.368 36.1985 72.464C36.2945 72.544 36.5025 72.584 36.8225 72.584ZM45.9015 62.36H46.4055V63.8H45.6855C44.6775 63.8 44.1735 64.4 44.1735 65.6V74H42.5175V62.36H44.1735V63.704C44.3015 63.336 44.5095 63.024 44.7975 62.768C45.1015 62.496 45.4695 62.36 45.9015 62.36Z" fill="#787878"/>
</svg>
