<svg width="17" height="16" viewBox="0 0 17 16" fill="none" xmlns="http://www.w3.org/2000/svg">
<path fill-rule="evenodd" clip-rule="evenodd" d="M11.3835 9.93266L14.9702 13.5193C15.0962 13.6455 15.167 13.8165 15.167 13.9949C15.1669 14.1732 15.096 14.3443 14.9698 14.4703C14.8437 14.5964 14.6726 14.6672 14.4943 14.6671C14.3159 14.6671 14.1449 14.5961 14.0188 14.47L10.4322 10.8833C9.35998 11.7138 8.01169 12.1046 6.66159 11.9762C5.31149 11.8479 4.06099 11.21 3.16449 10.1924C2.26799 9.17479 1.79283 7.85387 1.83567 6.49836C1.87851 5.14285 2.43614 3.85457 3.39511 2.8956C4.35408 1.93663 5.64236 1.379 6.99787 1.33616C8.35338 1.29332 9.6743 1.76848 10.6919 2.66498C11.7095 3.56148 12.3474 4.81198 12.4757 6.16208C12.6041 7.51218 12.2133 8.86047 11.3828 9.93266H11.3835ZM7.16684 10.6667C8.2277 10.6667 9.24512 10.2452 9.99526 9.49509C10.7454 8.74494 11.1668 7.72753 11.1668 6.66666C11.1668 5.60579 10.7454 4.58838 9.99526 3.83823C9.24512 3.08809 8.2277 2.66666 7.16684 2.66666C6.10597 2.66666 5.08856 3.08809 4.33841 3.83823C3.58826 4.58838 3.16684 5.60579 3.16684 6.66666C3.16684 7.72753 3.58826 8.74494 4.33841 9.49509C5.08856 10.2452 6.10597 10.6667 7.16684 10.6667Z" fill="#1E2732"/>
</svg>
